<svg width="56" height="56" xmlns="http://www.w3.org/2000/svg" fill="#000000">

 <g>
  <title>Layer 1</title>
  <path transform="rotate(-90, 28, 28)" id="svg_1" d="m9.4633,42l31.3848,0c3.0305,0 5.5823,-0.2835 7.3898,-2.0911c1.8078,-1.8076 2.0556,-4.3241 2.0556,-7.3544l0,-9.0912c0,-3.0304 -0.2478,-5.5646 -2.0556,-7.3544c-1.8252,-1.8076 -4.3593,-2.1089 -7.3898,-2.1089l-31.438,0c-2.9772,0 -5.5291,0.3013 -7.3367,2.1089c-1.8076,1.8075 -2.0734,4.324 -2.0734,7.3012l0,9.1444c0,3.0303 0.2658,5.5645 2.0734,7.3544c1.8076,1.8076 4.3595,2.0911 7.3899,2.0911zm-0.4962,-2.8532c-1.8253,0 -3.7392,-0.2481 -4.8025,-1.3113c-1.0811,-1.0811 -1.3114,-2.9596 -1.3114,-4.7849l0,-10.0304c0,-1.8607 0.2303,-3.7746 1.2936,-4.8379c1.0811,-1.081 3.0127,-1.3291 4.8735,-1.3291l32.3239,0c1.8078,0 3.7394,0.2658 4.8028,1.3291c1.0808,1.081 1.2935,2.9595 1.2935,4.7848l0,10.0835c0,1.8253 -0.2305,3.7038 -1.2935,4.7849c-1.0634,1.081 -2.995,1.3113 -4.8028,1.3113l-32.3771,0zm43.7545,-6.6633c1.3998,-0.0886 3.2784,-1.8784 3.2784,-4.5898c0,-2.6937 -1.8786,-4.4836 -3.2784,-4.5722l0,9.162z"/>
 </g>
</svg>